<?xml version="1.0" encoding="UTF-8"?>
<svg xmlns="http://www.w3.org/2000/svg" width="780" height="731" viewBox="0 0 780.00 731.00">
<rect x="0" y="0" width="780.00" height="731.00" fill="#f5efe4"/>
<text x="18" y="24" fill="#342a1f" font-size="16" font-family="monospace">layout preview</text>
<text x="18" y="44" fill="#342a1f" font-size="11" font-family="monospace">solid path = section geometry, dots = sampled LEDs, dashed = jump</text>
<text x="18.00" y="64" fill="#342a1f" font-size="13" font-family="monospace">front</text>
<line x1="390.00" y1="76.00" x2="390.00" y2="719.00" stroke="#c9c0b4" stroke-width="1.2" stroke-dasharray="7 6"/>
<line x1="726.00" y1="467.00" x2="509.00" y2="453.00" stroke="#8d8170" stroke-width="1.4" stroke-dasharray="5 5"/>
<line x1="460.00" y1="628.00" x2="509.00" y2="691.00" stroke="#8d8170" stroke-width="1.4" stroke-dasharray="5 5"/>
<line x1="740.00" y1="642.00" x2="614.00" y2="138.00" stroke="#8d8170" stroke-width="1.4" stroke-dasharray="5 5"/>
<line x1="299.00" y1="173.00" x2="306.00" y2="348.00" stroke="#8d8170" stroke-width="1.4" stroke-dasharray="5 5"/>
<line x1="54.00" y1="467.00" x2="271.00" y2="453.00" stroke="#8d8170" stroke-width="1.4" stroke-dasharray="5 5"/>
<line x1="320.00" y1="628.00" x2="271.00" y2="691.00" stroke="#8d8170" stroke-width="1.4" stroke-dasharray="5 5"/>
<line x1="40.00" y1="642.00" x2="166.00" y2="138.00" stroke="#8d8170" stroke-width="1.4" stroke-dasharray="5 5"/>
<path d="M551.00,40.00 L537.00,138.00 L481.00,173.00" fill="none" stroke="#1267a8" stroke-width="4.5" stroke-linecap="round" stroke-linejoin="round"/>
<circle cx="551.00" cy="40.00" r="2.2" fill="#fffaf2" stroke="#201912" stroke-width="0.8"/>
<circle cx="550.10" cy="46.28" r="2.2" fill="#fffaf2" stroke="#201912" stroke-width="0.8"/>
<circle cx="549.20" cy="52.57" r="2.2" fill="#fffaf2" stroke="#201912" stroke-width="0.8"/>
<circle cx="548.31" cy="58.85" r="2.2" fill="#fffaf2" stroke="#201912" stroke-width="0.8"/>
<circle cx="547.41" cy="65.13" r="2.2" fill="#fffaf2" stroke="#201912" stroke-width="0.8"/>
<circle cx="546.51" cy="71.42" r="2.2" fill="#fffaf2" stroke="#201912" stroke-width="0.8"/>
<circle cx="545.61" cy="77.70" r="2.2" fill="#fffaf2" stroke="#201912" stroke-width="0.8"/>
<circle cx="544.72" cy="83.99" r="2.2" fill="#fffaf2" stroke="#201912" stroke-width="0.8"/>
<circle cx="543.82" cy="90.27" r="2.2" fill="#fffaf2" stroke="#201912" stroke-width="0.8"/>
<circle cx="542.92" cy="96.55" r="2.2" fill="#fffaf2" stroke="#201912" stroke-width="0.8"/>
<circle cx="542.02" cy="102.84" r="2.2" fill="#fffaf2" stroke="#201912" stroke-width="0.8"/>
<circle cx="541.13" cy="109.12" r="2.2" fill="#fffaf2" stroke="#201912" stroke-width="0.8"/>
<circle cx="540.23" cy="115.40" r="2.2" fill="#fffaf2" stroke="#201912" stroke-width="0.8"/>
<circle cx="539.33" cy="121.69" r="2.2" fill="#fffaf2" stroke="#201912" stroke-width="0.8"/>
<circle cx="538.43" cy="127.97" r="2.2" fill="#fffaf2" stroke="#201912" stroke-width="0.8"/>
<circle cx="537.54" cy="134.25" r="2.2" fill="#fffaf2" stroke="#201912" stroke-width="0.8"/>
<circle cx="534.83" cy="139.36" r="2.2" fill="#fffaf2" stroke="#201912" stroke-width="0.8"/>
<circle cx="529.44" cy="142.72" r="2.2" fill="#fffaf2" stroke="#201912" stroke-width="0.8"/>
<circle cx="524.06" cy="146.09" r="2.2" fill="#fffaf2" stroke="#201912" stroke-width="0.8"/>
<circle cx="518.68" cy="149.45" r="2.2" fill="#fffaf2" stroke="#201912" stroke-width="0.8"/>
<circle cx="513.30" cy="152.82" r="2.2" fill="#fffaf2" stroke="#201912" stroke-width="0.8"/>
<circle cx="507.91" cy="156.18" r="2.2" fill="#fffaf2" stroke="#201912" stroke-width="0.8"/>
<circle cx="502.53" cy="159.54" r="2.2" fill="#fffaf2" stroke="#201912" stroke-width="0.8"/>
<circle cx="497.15" cy="162.91" r="2.2" fill="#fffaf2" stroke="#201912" stroke-width="0.8"/>
<circle cx="491.77" cy="166.27" r="2.2" fill="#fffaf2" stroke="#201912" stroke-width="0.8"/>
<circle cx="486.38" cy="169.64" r="2.2" fill="#fffaf2" stroke="#201912" stroke-width="0.8"/>
<circle cx="481.00" cy="173.00" r="2.2" fill="#fffaf2" stroke="#201912" stroke-width="0.8"/>
<text x="547.33" y="113.69" fill="#342a1f" font-size="10" font-family="monospace">front_left_top [27]</text>
<path d="M449.50,222.00 L449.37,218.11 L448.99,214.23 L448.36,210.39 L447.47,206.60 L446.34,202.87 L444.97,199.23 L443.36,195.68 L441.53,192.25 L439.47,188.94 L437.20,185.78 L434.73,182.77 L432.07,179.93 L429.23,177.27 L426.22,174.80 L423.06,172.53 L419.75,170.47 L416.32,168.64 L412.77,167.03 L409.13,165.66 L405.40,164.53 L401.61,163.64 L397.77,163.01 L393.89,162.63 L390.00,162.50 L386.11,162.63 L382.23,163.01 L378.39,163.64 L374.60,164.53 L370.87,165.66 L367.23,167.03 L363.68,168.64 L360.25,170.47 L356.94,172.53 L353.78,174.80 L350.77,177.27 L347.93,179.93 L345.27,182.77 L342.80,185.78 L340.53,188.94 L338.47,192.25 L336.64,195.68 L335.03,199.23 L333.66,202.87 L332.53,206.60 L331.64,210.39 L331.01,214.23 L330.63,218.11 L330.50,222.00 L330.63,225.89 L331.01,229.77 L331.64,233.61 L332.53,237.40 L333.66,241.13 L335.03,244.77 L336.64,248.32 L338.47,251.75 L340.53,255.06 L342.80,258.22 L345.27,261.23 L347.93,264.07 L350.77,266.73 L353.78,269.20 L356.94,271.47 L360.25,273.53 L363.68,275.36 L367.23,276.97 L370.87,278.34 L374.60,279.47 L378.39,280.36 L382.23,280.99 L386.11,281.37 L390.00,281.50 L393.89,281.37 L397.77,280.99 L401.61,280.36 L405.40,279.47 L409.13,278.34 L412.77,276.97 L416.32,275.36 L419.75,273.53 L423.06,271.47 L426.22,269.20 L429.23,266.73 L432.07,264.07 L434.73,261.23 L437.20,258.22 L439.47,255.06 L441.53,251.75 L443.36,248.32 L444.97,244.77 L446.34,241.13 L447.47,237.40 L448.36,233.61 L448.99,229.77 L449.37,225.89 L449.50,222.00" fill="none" stroke="#bd3c2a" stroke-width="4.5" stroke-linecap="round" stroke-linejoin="round"/>
<circle cx="449.50" cy="222.00" r="2.2" fill="#fffaf2" stroke="#201912" stroke-width="0.8"/>
<circle cx="448.54" cy="211.38" r="2.2" fill="#fffaf2" stroke="#201912" stroke-width="0.8"/>
<circle cx="445.71" cy="201.09" r="2.2" fill="#fffaf2" stroke="#201912" stroke-width="0.8"/>
<circle cx="441.08" cy="191.48" r="2.2" fill="#fffaf2" stroke="#201912" stroke-width="0.8"/>
<circle cx="434.81" cy="182.85" r="2.2" fill="#fffaf2" stroke="#201912" stroke-width="0.8"/>
<circle cx="427.10" cy="175.48" r="2.2" fill="#fffaf2" stroke="#201912" stroke-width="0.8"/>
<circle cx="418.20" cy="169.60" r="2.2" fill="#fffaf2" stroke="#201912" stroke-width="0.8"/>
<circle cx="408.39" cy="165.41" r="2.2" fill="#fffaf2" stroke="#201912" stroke-width="0.8"/>
<circle cx="397.99" cy="163.04" r="2.2" fill="#fffaf2" stroke="#201912" stroke-width="0.8"/>
<circle cx="387.33" cy="162.56" r="2.2" fill="#fffaf2" stroke="#201912" stroke-width="0.8"/>
<circle cx="376.76" cy="163.99" r="2.2" fill="#fffaf2" stroke="#201912" stroke-width="0.8"/>
<circle cx="366.62" cy="167.29" r="2.2" fill="#fffaf2" stroke="#201912" stroke-width="0.8"/>
<circle cx="357.22" cy="172.34" r="2.2" fill="#fffaf2" stroke="#201912" stroke-width="0.8"/>
<circle cx="348.88" cy="178.99" r="2.2" fill="#fffaf2" stroke="#201912" stroke-width="0.8"/>
<circle cx="341.86" cy="187.03" r="2.2" fill="#fffaf2" stroke="#201912" stroke-width="0.8"/>
<circle cx="336.39" cy="196.18" r="2.2" fill="#fffaf2" stroke="#201912" stroke-width="0.8"/>
<circle cx="332.64" cy="206.17" r="2.2" fill="#fffaf2" stroke="#201912" stroke-width="0.8"/>
<circle cx="330.74" cy="216.67" r="2.2" fill="#fffaf2" stroke="#201912" stroke-width="0.8"/>
<circle cx="330.74" cy="227.33" r="2.2" fill="#fffaf2" stroke="#201912" stroke-width="0.8"/>
<circle cx="332.64" cy="237.83" r="2.2" fill="#fffaf2" stroke="#201912" stroke-width="0.8"/>
<circle cx="336.39" cy="247.82" r="2.2" fill="#fffaf2" stroke="#201912" stroke-width="0.8"/>
<circle cx="341.86" cy="256.97" r="2.2" fill="#fffaf2" stroke="#201912" stroke-width="0.8"/>
<circle cx="348.88" cy="265.01" r="2.2" fill="#fffaf2" stroke="#201912" stroke-width="0.8"/>
<circle cx="357.22" cy="271.66" r="2.2" fill="#fffaf2" stroke="#201912" stroke-width="0.8"/>
<circle cx="366.62" cy="276.71" r="2.2" fill="#fffaf2" stroke="#201912" stroke-width="0.8"/>
<circle cx="376.76" cy="280.01" r="2.2" fill="#fffaf2" stroke="#201912" stroke-width="0.8"/>
<circle cx="387.33" cy="281.44" r="2.2" fill="#fffaf2" stroke="#201912" stroke-width="0.8"/>
<circle cx="397.99" cy="280.96" r="2.2" fill="#fffaf2" stroke="#201912" stroke-width="0.8"/>
<circle cx="408.39" cy="278.59" r="2.2" fill="#fffaf2" stroke="#201912" stroke-width="0.8"/>
<circle cx="418.20" cy="274.40" r="2.2" fill="#fffaf2" stroke="#201912" stroke-width="0.8"/>
<circle cx="427.10" cy="268.52" r="2.2" fill="#fffaf2" stroke="#201912" stroke-width="0.8"/>
<circle cx="434.81" cy="261.15" r="2.2" fill="#fffaf2" stroke="#201912" stroke-width="0.8"/>
<circle cx="441.08" cy="252.52" r="2.2" fill="#fffaf2" stroke="#201912" stroke-width="0.8"/>
<circle cx="445.71" cy="242.91" r="2.2" fill="#fffaf2" stroke="#201912" stroke-width="0.8"/>
<circle cx="448.54" cy="232.62" r="2.2" fill="#fffaf2" stroke="#201912" stroke-width="0.8"/>
<text x="338.74" y="208.67" fill="#342a1f" font-size="10" font-family="monospace">front_left_ring [35]</text>
<path d="M474.00,348.00 L572.00,432.00 L726.00,467.00" fill="none" stroke="#1267a8" stroke-width="4.5" stroke-linecap="round" stroke-linejoin="round"/>
<circle cx="474.00" cy="348.00" r="2.2" fill="#fffaf2" stroke="#201912" stroke-width="0.8"/>
<circle cx="478.74" cy="352.06" r="2.2" fill="#fffaf2" stroke="#201912" stroke-width="0.8"/>
<circle cx="483.47" cy="356.12" r="2.2" fill="#fffaf2" stroke="#201912" stroke-width="0.8"/>
<circle cx="488.21" cy="360.18" r="2.2" fill="#fffaf2" stroke="#201912" stroke-width="0.8"/>
<circle cx="492.95" cy="364.24" r="2.2" fill="#fffaf2" stroke="#201912" stroke-width="0.8"/>
<circle cx="497.69" cy="368.30" r="2.2" fill="#fffaf2" stroke="#201912" stroke-width="0.8"/>
<circle cx="502.42" cy="372.36" r="2.2" fill="#fffaf2" stroke="#201912" stroke-width="0.8"/>
<circle cx="507.16" cy="376.42" r="2.2" fill="#fffaf2" stroke="#201912" stroke-width="0.8"/>
<circle cx="511.90" cy="380.48" r="2.2" fill="#fffaf2" stroke="#201912" stroke-width="0.8"/>
<circle cx="516.63" cy="384.54" r="2.2" fill="#fffaf2" stroke="#201912" stroke-width="0.8"/>
<circle cx="521.37" cy="388.60" r="2.2" fill="#fffaf2" stroke="#201912" stroke-width="0.8"/>
<circle cx="526.11" cy="392.66" r="2.2" fill="#fffaf2" stroke="#201912" stroke-width="0.8"/>
<circle cx="530.85" cy="396.72" r="2.2" fill="#fffaf2" stroke="#201912" stroke-width="0.8"/>
<circle cx="535.58" cy="400.78" r="2.2" fill="#fffaf2" stroke="#201912" stroke-width="0.8"/>
<circle cx="540.32" cy="404.85" r="2.2" fill="#fffaf2" stroke="#201912" stroke-width="0.8"/>
<circle cx="545.06" cy="408.91" r="2.2" fill="#fffaf2" stroke="#201912" stroke-width="0.8"/>
<circle cx="549.79" cy="412.97" r="2.2" fill="#fffaf2" stroke="#201912" stroke-width="0.8"/>
<circle cx="554.53" cy="417.03" r="2.2" fill="#fffaf2" stroke="#201912" stroke-width="0.8"/>
<circle cx="559.27" cy="421.09" r="2.2" fill="#fffaf2" stroke="#201912" stroke-width="0.8"/>
<circle cx="564.01" cy="425.15" r="2.2" fill="#fffaf2" stroke="#201912" stroke-width="0.8"/>
<circle cx="568.74" cy="429.21" r="2.2" fill="#fffaf2" stroke="#201912" stroke-width="0.8"/>
<circle cx="573.90" cy="432.43" r="2.2" fill="#fffaf2" stroke="#201912" stroke-width="0.8"/>
<circle cx="579.98" cy="433.81" r="2.2" fill="#fffaf2" stroke="#201912" stroke-width="0.8"/>
<circle cx="586.07" cy="435.20" r="2.2" fill="#fffaf2" stroke="#201912" stroke-width="0.8"/>
<circle cx="592.15" cy="436.58" r="2.2" fill="#fffaf2" stroke="#201912" stroke-width="0.8"/>
<circle cx="598.24" cy="437.96" r="2.2" fill="#fffaf2" stroke="#201912" stroke-width="0.8"/>
<circle cx="604.32" cy="439.35" r="2.2" fill="#fffaf2" stroke="#201912" stroke-width="0.8"/>
<circle cx="610.40" cy="440.73" r="2.2" fill="#fffaf2" stroke="#201912" stroke-width="0.8"/>
<circle cx="616.49" cy="442.11" r="2.2" fill="#fffaf2" stroke="#201912" stroke-width="0.8"/>
<circle cx="622.57" cy="443.49" r="2.2" fill="#fffaf2" stroke="#201912" stroke-width="0.8"/>
<circle cx="628.66" cy="444.88" r="2.2" fill="#fffaf2" stroke="#201912" stroke-width="0.8"/>
<circle cx="634.74" cy="446.26" r="2.2" fill="#fffaf2" stroke="#201912" stroke-width="0.8"/>
<circle cx="640.82" cy="447.64" r="2.2" fill="#fffaf2" stroke="#201912" stroke-width="0.8"/>
<circle cx="646.91" cy="449.02" r="2.2" fill="#fffaf2" stroke="#201912" stroke-width="0.8"/>
<circle cx="652.99" cy="450.41" r="2.2" fill="#fffaf2" stroke="#201912" stroke-width="0.8"/>
<circle cx="659.08" cy="451.79" r="2.2" fill="#fffaf2" stroke="#201912" stroke-width="0.8"/>
<circle cx="665.16" cy="453.17" r="2.2" fill="#fffaf2" stroke="#201912" stroke-width="0.8"/>
<circle cx="671.24" cy="454.56" r="2.2" fill="#fffaf2" stroke="#201912" stroke-width="0.8"/>
<circle cx="677.33" cy="455.94" r="2.2" fill="#fffaf2" stroke="#201912" stroke-width="0.8"/>
<circle cx="683.41" cy="457.32" r="2.2" fill="#fffaf2" stroke="#201912" stroke-width="0.8"/>
<circle cx="689.50" cy="458.70" r="2.2" fill="#fffaf2" stroke="#201912" stroke-width="0.8"/>
<circle cx="695.58" cy="460.09" r="2.2" fill="#fffaf2" stroke="#201912" stroke-width="0.8"/>
<circle cx="701.66" cy="461.47" r="2.2" fill="#fffaf2" stroke="#201912" stroke-width="0.8"/>
<circle cx="707.75" cy="462.85" r="2.2" fill="#fffaf2" stroke="#201912" stroke-width="0.8"/>
<circle cx="713.83" cy="464.23" r="2.2" fill="#fffaf2" stroke="#201912" stroke-width="0.8"/>
<circle cx="719.92" cy="465.62" r="2.2" fill="#fffaf2" stroke="#201912" stroke-width="0.8"/>
<circle cx="726.00" cy="467.00" r="2.2" fill="#fffaf2" stroke="#201912" stroke-width="0.8"/>
<text x="594.07" y="427.20" fill="#342a1f" font-size="10" font-family="monospace">front_left_rib [47]</text>
<path d="M509.00,453.00 L481.00,474.00 L460.00,628.00" fill="none" stroke="#1267a8" stroke-width="4.5" stroke-linecap="round" stroke-linejoin="round"/>
<circle cx="509.00" cy="453.00" r="2.2" fill="#fffaf2" stroke="#201912" stroke-width="0.8"/>
<circle cx="503.92" cy="456.81" r="2.2" fill="#fffaf2" stroke="#201912" stroke-width="0.8"/>
<circle cx="498.84" cy="460.62" r="2.2" fill="#fffaf2" stroke="#201912" stroke-width="0.8"/>
<circle cx="493.77" cy="464.43" r="2.2" fill="#fffaf2" stroke="#201912" stroke-width="0.8"/>
<circle cx="488.69" cy="468.23" r="2.2" fill="#fffaf2" stroke="#201912" stroke-width="0.8"/>
<circle cx="483.61" cy="472.04" r="2.2" fill="#fffaf2" stroke="#201912" stroke-width="0.8"/>
<circle cx="480.58" cy="477.06" r="2.2" fill="#fffaf2" stroke="#201912" stroke-width="0.8"/>
<circle cx="479.73" cy="483.35" r="2.2" fill="#fffaf2" stroke="#201912" stroke-width="0.8"/>
<circle cx="478.87" cy="489.64" r="2.2" fill="#fffaf2" stroke="#201912" stroke-width="0.8"/>
<circle cx="478.01" cy="495.92" r="2.2" fill="#fffaf2" stroke="#201912" stroke-width="0.8"/>
<circle cx="477.15" cy="502.21" r="2.2" fill="#fffaf2" stroke="#201912" stroke-width="0.8"/>
<circle cx="476.30" cy="508.50" r="2.2" fill="#fffaf2" stroke="#201912" stroke-width="0.8"/>
<circle cx="475.44" cy="514.79" r="2.2" fill="#fffaf2" stroke="#201912" stroke-width="0.8"/>
<circle cx="474.58" cy="521.08" r="2.2" fill="#fffaf2" stroke="#201912" stroke-width="0.8"/>
<circle cx="473.72" cy="527.37" r="2.2" fill="#fffaf2" stroke="#201912" stroke-width="0.8"/>
<circle cx="472.86" cy="533.66" r="2.2" fill="#fffaf2" stroke="#201912" stroke-width="0.8"/>
<circle cx="472.01" cy="539.95" r="2.2" fill="#fffaf2" stroke="#201912" stroke-width="0.8"/>
<circle cx="471.15" cy="546.24" r="2.2" fill="#fffaf2" stroke="#201912" stroke-width="0.8"/>
<circle cx="470.29" cy="552.53" r="2.2" fill="#fffaf2" stroke="#201912" stroke-width="0.8"/>
<circle cx="469.43" cy="558.82" r="2.2" fill="#fffaf2" stroke="#201912" stroke-width="0.8"/>
<circle cx="468.58" cy="565.11" r="2.2" fill="#fffaf2" stroke="#201912" stroke-width="0.8"/>
<circle cx="467.72" cy="571.40" r="2.2" fill="#fffaf2" stroke="#201912" stroke-width="0.8"/>
<circle cx="466.86" cy="577.69" r="2.2" fill="#fffaf2" stroke="#201912" stroke-width="0.8"/>
<circle cx="466.00" cy="583.97" r="2.2" fill="#fffaf2" stroke="#201912" stroke-width="0.8"/>
<circle cx="465.15" cy="590.26" r="2.2" fill="#fffaf2" stroke="#201912" stroke-width="0.8"/>
<circle cx="464.29" cy="596.55" r="2.2" fill="#fffaf2" stroke="#201912" stroke-width="0.8"/>
<circle cx="463.43" cy="602.84" r="2.2" fill="#fffaf2" stroke="#201912" stroke-width="0.8"/>
<circle cx="462.57" cy="609.13" r="2.2" fill="#fffaf2" stroke="#201912" stroke-width="0.8"/>
<circle cx="461.72" cy="615.42" r="2.2" fill="#fffaf2" stroke="#201912" stroke-width="0.8"/>
<circle cx="460.86" cy="621.71" r="2.2" fill="#fffaf2" stroke="#201912" stroke-width="0.8"/>
<circle cx="460.00" cy="628.00" r="2.2" fill="#fffaf2" stroke="#201912" stroke-width="0.8"/>
<text x="480.86" y="525.66" fill="#342a1f" font-size="10" font-family="monospace">front_left_abs [31]</text>
<path d="M509.00,691.00 L740.00,642.00" fill="none" stroke="#1267a8" stroke-width="4.5" stroke-linecap="round" stroke-linejoin="round"/>
<circle cx="509.00" cy="691.00" r="2.2" fill="#fffaf2" stroke="#201912" stroke-width="0.8"/>
<circle cx="515.08" cy="689.71" r="2.2" fill="#fffaf2" stroke="#201912" stroke-width="0.8"/>
<circle cx="521.16" cy="688.42" r="2.2" fill="#fffaf2" stroke="#201912" stroke-width="0.8"/>
<circle cx="527.24" cy="687.13" r="2.2" fill="#fffaf2" stroke="#201912" stroke-width="0.8"/>
<circle cx="533.32" cy="685.84" r="2.2" fill="#fffaf2" stroke="#201912" stroke-width="0.8"/>
<circle cx="539.39" cy="684.55" r="2.2" fill="#fffaf2" stroke="#201912" stroke-width="0.8"/>
<circle cx="545.47" cy="683.26" r="2.2" fill="#fffaf2" stroke="#201912" stroke-width="0.8"/>
<circle cx="551.55" cy="681.97" r="2.2" fill="#fffaf2" stroke="#201912" stroke-width="0.8"/>
<circle cx="557.63" cy="680.68" r="2.2" fill="#fffaf2" stroke="#201912" stroke-width="0.8"/>
<circle cx="563.71" cy="679.39" r="2.2" fill="#fffaf2" stroke="#201912" stroke-width="0.8"/>
<circle cx="569.79" cy="678.11" r="2.2" fill="#fffaf2" stroke="#201912" stroke-width="0.8"/>
<circle cx="575.87" cy="676.82" r="2.2" fill="#fffaf2" stroke="#201912" stroke-width="0.8"/>
<circle cx="581.95" cy="675.53" r="2.2" fill="#fffaf2" stroke="#201912" stroke-width="0.8"/>
<circle cx="588.03" cy="674.24" r="2.2" fill="#fffaf2" stroke="#201912" stroke-width="0.8"/>
<circle cx="594.11" cy="672.95" r="2.2" fill="#fffaf2" stroke="#201912" stroke-width="0.8"/>
<circle cx="600.18" cy="671.66" r="2.2" fill="#fffaf2" stroke="#201912" stroke-width="0.8"/>
<circle cx="606.26" cy="670.37" r="2.2" fill="#fffaf2" stroke="#201912" stroke-width="0.8"/>
<circle cx="612.34" cy="669.08" r="2.2" fill="#fffaf2" stroke="#201912" stroke-width="0.8"/>
<circle cx="618.42" cy="667.79" r="2.2" fill="#fffaf2" stroke="#201912" stroke-width="0.8"/>
<circle cx="624.50" cy="666.50" r="2.2" fill="#fffaf2" stroke="#201912" stroke-width="0.8"/>
<circle cx="630.58" cy="665.21" r="2.2" fill="#fffaf2" stroke="#201912" stroke-width="0.8"/>
<circle cx="636.66" cy="663.92" r="2.2" fill="#fffaf2" stroke="#201912" stroke-width="0.8"/>
<circle cx="642.74" cy="662.63" r="2.2" fill="#fffaf2" stroke="#201912" stroke-width="0.8"/>
<circle cx="648.82" cy="661.34" r="2.2" fill="#fffaf2" stroke="#201912" stroke-width="0.8"/>
<circle cx="654.89" cy="660.05" r="2.2" fill="#fffaf2" stroke="#201912" stroke-width="0.8"/>
<circle cx="660.97" cy="658.76" r="2.2" fill="#fffaf2" stroke="#201912" stroke-width="0.8"/>
<circle cx="667.05" cy="657.47" r="2.2" fill="#fffaf2" stroke="#201912" stroke-width="0.8"/>
<circle cx="673.13" cy="656.18" r="2.2" fill="#fffaf2" stroke="#201912" stroke-width="0.8"/>
<circle cx="679.21" cy="654.89" r="2.2" fill="#fffaf2" stroke="#201912" stroke-width="0.8"/>
<circle cx="685.29" cy="653.61" r="2.2" fill="#fffaf2" stroke="#201912" stroke-width="0.8"/>
<circle cx="691.37" cy="652.32" r="2.2" fill="#fffaf2" stroke="#201912" stroke-width="0.8"/>
<circle cx="697.45" cy="651.03" r="2.2" fill="#fffaf2" stroke="#201912" stroke-width="0.8"/>
<circle cx="703.53" cy="649.74" r="2.2" fill="#fffaf2" stroke="#201912" stroke-width="0.8"/>
<circle cx="709.61" cy="648.45" r="2.2" fill="#fffaf2" stroke="#201912" stroke-width="0.8"/>
<circle cx="715.68" cy="647.16" r="2.2" fill="#fffaf2" stroke="#201912" stroke-width="0.8"/>
<circle cx="721.76" cy="645.87" r="2.2" fill="#fffaf2" stroke="#201912" stroke-width="0.8"/>
<circle cx="727.84" cy="644.58" r="2.2" fill="#fffaf2" stroke="#201912" stroke-width="0.8"/>
<circle cx="733.92" cy="643.29" r="2.2" fill="#fffaf2" stroke="#201912" stroke-width="0.8"/>
<circle cx="740.00" cy="642.00" r="2.2" fill="#fffaf2" stroke="#201912" stroke-width="0.8"/>
<text x="632.50" y="658.50" fill="#342a1f" font-size="10" font-family="monospace">front_left_belt [39]</text>
<path d="M614.00,138.00 L635.00,201.00 L670.00,306.00 L649.00,278.00 L628.00,229.00" fill="none" stroke="#1267a8" stroke-width="4.5" stroke-linecap="round" stroke-linejoin="round"/>
<circle cx="614.00" cy="138.00" r="2.2" fill="#fffaf2" stroke="#201912" stroke-width="0.8"/>
<circle cx="615.98" cy="143.93" r="2.2" fill="#fffaf2" stroke="#201912" stroke-width="0.8"/>
<circle cx="617.96" cy="149.87" r="2.2" fill="#fffaf2" stroke="#201912" stroke-width="0.8"/>
<circle cx="619.93" cy="155.80" r="2.2" fill="#fffaf2" stroke="#201912" stroke-width="0.8"/>
<circle cx="621.91" cy="161.73" r="2.2" fill="#fffaf2" stroke="#201912" stroke-width="0.8"/>
<circle cx="623.89" cy="167.66" r="2.2" fill="#fffaf2" stroke="#201912" stroke-width="0.8"/>
<circle cx="625.87" cy="173.60" r="2.2" fill="#fffaf2" stroke="#201912" stroke-width="0.8"/>
<circle cx="627.84" cy="179.53" r="2.2" fill="#fffaf2" stroke="#201912" stroke-width="0.8"/>
<circle cx="629.82" cy="185.46" r="2.2" fill="#fffaf2" stroke="#201912" stroke-width="0.8"/>
<circle cx="631.80" cy="191.39" r="2.2" fill="#fffaf2" stroke="#201912" stroke-width="0.8"/>
<circle cx="633.78" cy="197.33" r="2.2" fill="#fffaf2" stroke="#201912" stroke-width="0.8"/>
<circle cx="635.73" cy="203.19" r="2.2" fill="#fffaf2" stroke="#201912" stroke-width="0.8"/>
<circle cx="637.65" cy="208.94" r="2.2" fill="#fffaf2" stroke="#201912" stroke-width="0.8"/>
<circle cx="639.56" cy="214.69" r="2.2" fill="#fffaf2" stroke="#201912" stroke-width="0.8"/>
<circle cx="641.48" cy="220.45" r="2.2" fill="#fffaf2" stroke="#201912" stroke-width="0.8"/>
<circle cx="643.40" cy="226.20" r="2.2" fill="#fffaf2" stroke="#201912" stroke-width="0.8"/>
<circle cx="645.32" cy="231.95" r="2.2" fill="#fffaf2" stroke="#201912" stroke-width="0.8"/>
<circle cx="647.23" cy="237.70" r="2.2" fill="#fffaf2" stroke="#201912" stroke-width="0.8"/>
<circle cx="649.15" cy="243.45" r="2.2" fill="#fffaf2" stroke="#201912" stroke-width="0.8"/>
<circle cx="651.07" cy="249.20" r="2.2" fill="#fffaf2" stroke="#201912" stroke-width="0.8"/>
<circle cx="652.98" cy="254.95" r="2.2" fill="#fffaf2" stroke="#201912" stroke-width="0.8"/>
<circle cx="654.90" cy="260.71" r="2.2" fill="#fffaf2" stroke="#201912" stroke-width="0.8"/>
<circle cx="656.82" cy="266.46" r="2.2" fill="#fffaf2" stroke="#201912" stroke-width="0.8"/>
<circle cx="658.74" cy="272.21" r="2.2" fill="#fffaf2" stroke="#201912" stroke-width="0.8"/>
<circle cx="660.65" cy="277.96" r="2.2" fill="#fffaf2" stroke="#201912" stroke-width="0.8"/>
<circle cx="662.57" cy="283.71" r="2.2" fill="#fffaf2" stroke="#201912" stroke-width="0.8"/>
<circle cx="664.49" cy="289.46" r="2.2" fill="#fffaf2" stroke="#201912" stroke-width="0.8"/>
<circle cx="666.40" cy="295.21" r="2.2" fill="#fffaf2" stroke="#201912" stroke-width="0.8"/>
<circle cx="668.32" cy="300.97" r="2.2" fill="#fffaf2" stroke="#201912" stroke-width="0.8"/>
<circle cx="669.60" cy="305.46" r="2.2" fill="#fffaf2" stroke="#201912" stroke-width="0.8"/>
<circle cx="666.38" cy="301.17" r="2.2" fill="#fffaf2" stroke="#201912" stroke-width="0.8"/>
<circle cx="663.16" cy="296.88" r="2.2" fill="#fffaf2" stroke="#201912" stroke-width="0.8"/>
<circle cx="659.95" cy="292.59" r="2.2" fill="#fffaf2" stroke="#201912" stroke-width="0.8"/>
<circle cx="656.73" cy="288.30" r="2.2" fill="#fffaf2" stroke="#201912" stroke-width="0.8"/>
<circle cx="653.51" cy="284.01" r="2.2" fill="#fffaf2" stroke="#201912" stroke-width="0.8"/>
<circle cx="650.29" cy="279.72" r="2.2" fill="#fffaf2" stroke="#201912" stroke-width="0.8"/>
<circle cx="647.54" cy="274.59" r="2.2" fill="#fffaf2" stroke="#201912" stroke-width="0.8"/>
<circle cx="645.10" cy="268.89" r="2.2" fill="#fffaf2" stroke="#201912" stroke-width="0.8"/>
<circle cx="642.65" cy="263.19" r="2.2" fill="#fffaf2" stroke="#201912" stroke-width="0.8"/>
<circle cx="640.21" cy="257.50" r="2.2" fill="#fffaf2" stroke="#201912" stroke-width="0.8"/>
<circle cx="637.77" cy="251.80" r="2.2" fill="#fffaf2" stroke="#201912" stroke-width="0.8"/>
<circle cx="635.33" cy="246.10" r="2.2" fill="#fffaf2" stroke="#201912" stroke-width="0.8"/>
<circle cx="632.88" cy="240.40" r="2.2" fill="#fffaf2" stroke="#201912" stroke-width="0.8"/>
<circle cx="630.44" cy="234.70" r="2.2" fill="#fffaf2" stroke="#201912" stroke-width="0.8"/>
<circle cx="628.00" cy="229.00" r="2.2" fill="#fffaf2" stroke="#201912" stroke-width="0.8"/>
<text x="664.82" y="258.46" fill="#342a1f" font-size="10" font-family="monospace">left_upper_arm [45]</text>
<path d="M670.00,306.00 L712.00,439.00" fill="none" stroke="#1267a8" stroke-width="4.5" stroke-linecap="round" stroke-linejoin="round"/>
<circle cx="670.00" cy="306.00" r="2.2" fill="#fffaf2" stroke="#201912" stroke-width="0.8"/>
<circle cx="671.91" cy="312.05" r="2.2" fill="#fffaf2" stroke="#201912" stroke-width="0.8"/>
<circle cx="673.82" cy="318.09" r="2.2" fill="#fffaf2" stroke="#201912" stroke-width="0.8"/>
<circle cx="675.73" cy="324.14" r="2.2" fill="#fffaf2" stroke="#201912" stroke-width="0.8"/>
<circle cx="677.64" cy="330.18" r="2.2" fill="#fffaf2" stroke="#201912" stroke-width="0.8"/>
<circle cx="679.55" cy="336.23" r="2.2" fill="#fffaf2" stroke="#201912" stroke-width="0.8"/>
<circle cx="681.45" cy="342.27" r="2.2" fill="#fffaf2" stroke="#201912" stroke-width="0.8"/>
<circle cx="683.36" cy="348.32" r="2.2" fill="#fffaf2" stroke="#201912" stroke-width="0.8"/>
<circle cx="685.27" cy="354.36" r="2.2" fill="#fffaf2" stroke="#201912" stroke-width="0.8"/>
<circle cx="687.18" cy="360.41" r="2.2" fill="#fffaf2" stroke="#201912" stroke-width="0.8"/>
<circle cx="689.09" cy="366.45" r="2.2" fill="#fffaf2" stroke="#201912" stroke-width="0.8"/>
<circle cx="691.00" cy="372.50" r="2.2" fill="#fffaf2" stroke="#201912" stroke-width="0.8"/>
<circle cx="692.91" cy="378.55" r="2.2" fill="#fffaf2" stroke="#201912" stroke-width="0.8"/>
<circle cx="694.82" cy="384.59" r="2.2" fill="#fffaf2" stroke="#201912" stroke-width="0.8"/>
<circle cx="696.73" cy="390.64" r="2.2" fill="#fffaf2" stroke="#201912" stroke-width="0.8"/>
<circle cx="698.64" cy="396.68" r="2.2" fill="#fffaf2" stroke="#201912" stroke-width="0.8"/>
<circle cx="700.55" cy="402.73" r="2.2" fill="#fffaf2" stroke="#201912" stroke-width="0.8"/>
<circle cx="702.45" cy="408.77" r="2.2" fill="#fffaf2" stroke="#201912" stroke-width="0.8"/>
<circle cx="704.36" cy="414.82" r="2.2" fill="#fffaf2" stroke="#201912" stroke-width="0.8"/>
<circle cx="706.27" cy="420.86" r="2.2" fill="#fffaf2" stroke="#201912" stroke-width="0.8"/>
<circle cx="708.18" cy="426.91" r="2.2" fill="#fffaf2" stroke="#201912" stroke-width="0.8"/>
<circle cx="710.09" cy="432.95" r="2.2" fill="#fffaf2" stroke="#201912" stroke-width="0.8"/>
<circle cx="712.00" cy="439.00" r="2.2" fill="#fffaf2" stroke="#201912" stroke-width="0.8"/>
<text x="699.00" y="364.50" fill="#342a1f" font-size="10" font-family="monospace">left_forearm [23]</text>
<path d="M229.00,40.00 L243.00,138.00 L299.00,173.00" fill="none" stroke="#c7641e" stroke-width="4.5" stroke-linecap="round" stroke-linejoin="round"/>
<circle cx="229.00" cy="40.00" r="2.2" fill="#fffaf2" stroke="#201912" stroke-width="0.8"/>
<circle cx="229.90" cy="46.28" r="2.2" fill="#fffaf2" stroke="#201912" stroke-width="0.8"/>
<circle cx="230.80" cy="52.57" r="2.2" fill="#fffaf2" stroke="#201912" stroke-width="0.8"/>
<circle cx="231.69" cy="58.85" r="2.2" fill="#fffaf2" stroke="#201912" stroke-width="0.8"/>
<circle cx="232.59" cy="65.13" r="2.2" fill="#fffaf2" stroke="#201912" stroke-width="0.8"/>
<circle cx="233.49" cy="71.42" r="2.2" fill="#fffaf2" stroke="#201912" stroke-width="0.8"/>
<circle cx="234.39" cy="77.70" r="2.2" fill="#fffaf2" stroke="#201912" stroke-width="0.8"/>
<circle cx="235.28" cy="83.99" r="2.2" fill="#fffaf2" stroke="#201912" stroke-width="0.8"/>
<circle cx="236.18" cy="90.27" r="2.2" fill="#fffaf2" stroke="#201912" stroke-width="0.8"/>
<circle cx="237.08" cy="96.55" r="2.2" fill="#fffaf2" stroke="#201912" stroke-width="0.8"/>
<circle cx="237.98" cy="102.84" r="2.2" fill="#fffaf2" stroke="#201912" stroke-width="0.8"/>
<circle cx="238.87" cy="109.12" r="2.2" fill="#fffaf2" stroke="#201912" stroke-width="0.8"/>
<circle cx="239.77" cy="115.40" r="2.2" fill="#fffaf2" stroke="#201912" stroke-width="0.8"/>
<circle cx="240.67" cy="121.69" r="2.2" fill="#fffaf2" stroke="#201912" stroke-width="0.8"/>
<circle cx="241.57" cy="127.97" r="2.2" fill="#fffaf2" stroke="#201912" stroke-width="0.8"/>
<circle cx="242.46" cy="134.25" r="2.2" fill="#fffaf2" stroke="#201912" stroke-width="0.8"/>
<circle cx="245.17" cy="139.36" r="2.2" fill="#fffaf2" stroke="#201912" stroke-width="0.8"/>
<circle cx="250.56" cy="142.72" r="2.2" fill="#fffaf2" stroke="#201912" stroke-width="0.8"/>
<circle cx="255.94" cy="146.09" r="2.2" fill="#fffaf2" stroke="#201912" stroke-width="0.8"/>
<circle cx="261.32" cy="149.45" r="2.2" fill="#fffaf2" stroke="#201912" stroke-width="0.8"/>
<circle cx="266.70" cy="152.82" r="2.2" fill="#fffaf2" stroke="#201912" stroke-width="0.8"/>
<circle cx="272.09" cy="156.18" r="2.2" fill="#fffaf2" stroke="#201912" stroke-width="0.8"/>
<circle cx="277.47" cy="159.54" r="2.2" fill="#fffaf2" stroke="#201912" stroke-width="0.8"/>
<circle cx="282.85" cy="162.91" r="2.2" fill="#fffaf2" stroke="#201912" stroke-width="0.8"/>
<circle cx="288.23" cy="166.27" r="2.2" fill="#fffaf2" stroke="#201912" stroke-width="0.8"/>
<circle cx="293.62" cy="169.64" r="2.2" fill="#fffaf2" stroke="#201912" stroke-width="0.8"/>
<circle cx="299.00" cy="173.00" r="2.2" fill="#fffaf2" stroke="#201912" stroke-width="0.8"/>
<text x="248.67" y="113.69" fill="#342a1f" font-size="10" font-family="monospace">front_right_top [27]</text>
<path d="M306.00,348.00 L208.00,432.00 L54.00,467.00" fill="none" stroke="#c7641e" stroke-width="4.5" stroke-linecap="round" stroke-linejoin="round"/>
<circle cx="306.00" cy="348.00" r="2.2" fill="#fffaf2" stroke="#201912" stroke-width="0.8"/>
<circle cx="301.26" cy="352.06" r="2.2" fill="#fffaf2" stroke="#201912" stroke-width="0.8"/>
<circle cx="296.53" cy="356.12" r="2.2" fill="#fffaf2" stroke="#201912" stroke-width="0.8"/>
<circle cx="291.79" cy="360.18" r="2.2" fill="#fffaf2" stroke="#201912" stroke-width="0.8"/>
<circle cx="287.05" cy="364.24" r="2.2" fill="#fffaf2" stroke="#201912" stroke-width="0.8"/>
<circle cx="282.31" cy="368.30" r="2.2" fill="#fffaf2" stroke="#201912" stroke-width="0.8"/>
<circle cx="277.58" cy="372.36" r="2.2" fill="#fffaf2" stroke="#201912" stroke-width="0.8"/>
<circle cx="272.84" cy="376.42" r="2.2" fill="#fffaf2" stroke="#201912" stroke-width="0.8"/>
<circle cx="268.10" cy="380.48" r="2.2" fill="#fffaf2" stroke="#201912" stroke-width="0.8"/>
<circle cx="263.37" cy="384.54" r="2.2" fill="#fffaf2" stroke="#201912" stroke-width="0.8"/>
<circle cx="258.63" cy="388.60" r="2.2" fill="#fffaf2" stroke="#201912" stroke-width="0.8"/>
<circle cx="253.89" cy="392.66" r="2.2" fill="#fffaf2" stroke="#201912" stroke-width="0.8"/>
<circle cx="249.15" cy="396.72" r="2.2" fill="#fffaf2" stroke="#201912" stroke-width="0.8"/>
<circle cx="244.42" cy="400.78" r="2.2" fill="#fffaf2" stroke="#201912" stroke-width="0.8"/>
<circle cx="239.68" cy="404.85" r="2.2" fill="#fffaf2" stroke="#201912" stroke-width="0.8"/>
<circle cx="234.94" cy="408.91" r="2.2" fill="#fffaf2" stroke="#201912" stroke-width="0.8"/>
<circle cx="230.21" cy="412.97" r="2.2" fill="#fffaf2" stroke="#201912" stroke-width="0.8"/>
<circle cx="225.47" cy="417.03" r="2.2" fill="#fffaf2" stroke="#201912" stroke-width="0.8"/>
<circle cx="220.73" cy="421.09" r="2.2" fill="#fffaf2" stroke="#201912" stroke-width="0.8"/>
<circle cx="215.99" cy="425.15" r="2.2" fill="#fffaf2" stroke="#201912" stroke-width="0.8"/>
<circle cx="211.26" cy="429.21" r="2.2" fill="#fffaf2" stroke="#201912" stroke-width="0.8"/>
<circle cx="206.10" cy="432.43" r="2.2" fill="#fffaf2" stroke="#201912" stroke-width="0.8"/>
<circle cx="200.02" cy="433.81" r="2.2" fill="#fffaf2" stroke="#201912" stroke-width="0.8"/>
<circle cx="193.93" cy="435.20" r="2.2" fill="#fffaf2" stroke="#201912" stroke-width="0.8"/>
<circle cx="187.85" cy="436.58" r="2.2" fill="#fffaf2" stroke="#201912" stroke-width="0.8"/>
<circle cx="181.76" cy="437.96" r="2.2" fill="#fffaf2" stroke="#201912" stroke-width="0.8"/>
<circle cx="175.68" cy="439.35" r="2.2" fill="#fffaf2" stroke="#201912" stroke-width="0.8"/>
<circle cx="169.60" cy="440.73" r="2.2" fill="#fffaf2" stroke="#201912" stroke-width="0.8"/>
<circle cx="163.51" cy="442.11" r="2.2" fill="#fffaf2" stroke="#201912" stroke-width="0.8"/>
<circle cx="157.43" cy="443.49" r="2.2" fill="#fffaf2" stroke="#201912" stroke-width="0.8"/>
<circle cx="151.34" cy="444.88" r="2.2" fill="#fffaf2" stroke="#201912" stroke-width="0.8"/>
<circle cx="145.26" cy="446.26" r="2.2" fill="#fffaf2" stroke="#201912" stroke-width="0.8"/>
<circle cx="139.18" cy="447.64" r="2.2" fill="#fffaf2" stroke="#201912" stroke-width="0.8"/>
<circle cx="133.09" cy="449.02" r="2.2" fill="#fffaf2" stroke="#201912" stroke-width="0.8"/>
<circle cx="127.01" cy="450.41" r="2.2" fill="#fffaf2" stroke="#201912" stroke-width="0.8"/>
<circle cx="120.92" cy="451.79" r="2.2" fill="#fffaf2" stroke="#201912" stroke-width="0.8"/>
<circle cx="114.84" cy="453.17" r="2.2" fill="#fffaf2" stroke="#201912" stroke-width="0.8"/>
<circle cx="108.76" cy="454.56" r="2.2" fill="#fffaf2" stroke="#201912" stroke-width="0.8"/>
<circle cx="102.67" cy="455.94" r="2.2" fill="#fffaf2" stroke="#201912" stroke-width="0.8"/>
<circle cx="96.59" cy="457.32" r="2.2" fill="#fffaf2" stroke="#201912" stroke-width="0.8"/>
<circle cx="90.50" cy="458.70" r="2.2" fill="#fffaf2" stroke="#201912" stroke-width="0.8"/>
<circle cx="84.42" cy="460.09" r="2.2" fill="#fffaf2" stroke="#201912" stroke-width="0.8"/>
<circle cx="78.34" cy="461.47" r="2.2" fill="#fffaf2" stroke="#201912" stroke-width="0.8"/>
<circle cx="72.25" cy="462.85" r="2.2" fill="#fffaf2" stroke="#201912" stroke-width="0.8"/>
<circle cx="66.17" cy="464.23" r="2.2" fill="#fffaf2" stroke="#201912" stroke-width="0.8"/>
<circle cx="60.08" cy="465.62" r="2.2" fill="#fffaf2" stroke="#201912" stroke-width="0.8"/>
<circle cx="54.00" cy="467.00" r="2.2" fill="#fffaf2" stroke="#201912" stroke-width="0.8"/>
<text x="201.93" y="427.20" fill="#342a1f" font-size="10" font-family="monospace">front_right_rib [47]</text>
<path d="M271.00,453.00 L299.00,474.00 L320.00,628.00" fill="none" stroke="#c7641e" stroke-width="4.5" stroke-linecap="round" stroke-linejoin="round"/>
<circle cx="271.00" cy="453.00" r="2.2" fill="#fffaf2" stroke="#201912" stroke-width="0.8"/>
<circle cx="276.08" cy="456.81" r="2.2" fill="#fffaf2" stroke="#201912" stroke-width="0.8"/>
<circle cx="281.16" cy="460.62" r="2.2" fill="#fffaf2" stroke="#201912" stroke-width="0.8"/>
<circle cx="286.23" cy="464.43" r="2.2" fill="#fffaf2" stroke="#201912" stroke-width="0.8"/>
<circle cx="291.31" cy="468.23" r="2.2" fill="#fffaf2" stroke="#201912" stroke-width="0.8"/>
<circle cx="296.39" cy="472.04" r="2.2" fill="#fffaf2" stroke="#201912" stroke-width="0.8"/>
<circle cx="299.42" cy="477.06" r="2.2" fill="#fffaf2" stroke="#201912" stroke-width="0.8"/>
<circle cx="300.27" cy="483.35" r="2.2" fill="#fffaf2" stroke="#201912" stroke-width="0.8"/>
<circle cx="301.13" cy="489.64" r="2.2" fill="#fffaf2" stroke="#201912" stroke-width="0.8"/>
<circle cx="301.99" cy="495.92" r="2.2" fill="#fffaf2" stroke="#201912" stroke-width="0.8"/>
<circle cx="302.85" cy="502.21" r="2.2" fill="#fffaf2" stroke="#201912" stroke-width="0.8"/>
<circle cx="303.70" cy="508.50" r="2.2" fill="#fffaf2" stroke="#201912" stroke-width="0.8"/>
<circle cx="304.56" cy="514.79" r="2.2" fill="#fffaf2" stroke="#201912" stroke-width="0.8"/>
<circle cx="305.42" cy="521.08" r="2.2" fill="#fffaf2" stroke="#201912" stroke-width="0.8"/>
<circle cx="306.28" cy="527.37" r="2.2" fill="#fffaf2" stroke="#201912" stroke-width="0.8"/>
<circle cx="307.14" cy="533.66" r="2.2" fill="#fffaf2" stroke="#201912" stroke-width="0.8"/>
<circle cx="307.99" cy="539.95" r="2.2" fill="#fffaf2" stroke="#201912" stroke-width="0.8"/>
<circle cx="308.85" cy="546.24" r="2.2" fill="#fffaf2" stroke="#201912" stroke-width="0.8"/>
<circle cx="309.71" cy="552.53" r="2.2" fill="#fffaf2" stroke="#201912" stroke-width="0.8"/>
<circle cx="310.57" cy="558.82" r="2.2" fill="#fffaf2" stroke="#201912" stroke-width="0.8"/>
<circle cx="311.42" cy="565.11" r="2.2" fill="#fffaf2" stroke="#201912" stroke-width="0.8"/>
<circle cx="312.28" cy="571.40" r="2.2" fill="#fffaf2" stroke="#201912" stroke-width="0.8"/>
<circle cx="313.14" cy="577.69" r="2.2" fill="#fffaf2" stroke="#201912" stroke-width="0.8"/>
<circle cx="314.00" cy="583.97" r="2.2" fill="#fffaf2" stroke="#201912" stroke-width="0.8"/>
<circle cx="314.85" cy="590.26" r="2.2" fill="#fffaf2" stroke="#201912" stroke-width="0.8"/>
<circle cx="315.71" cy="596.55" r="2.2" fill="#fffaf2" stroke="#201912" stroke-width="0.8"/>
<circle cx="316.57" cy="602.84" r="2.2" fill="#fffaf2" stroke="#201912" stroke-width="0.8"/>
<circle cx="317.43" cy="609.13" r="2.2" fill="#fffaf2" stroke="#201912" stroke-width="0.8"/>
<circle cx="318.28" cy="615.42" r="2.2" fill="#fffaf2" stroke="#201912" stroke-width="0.8"/>
<circle cx="319.14" cy="621.71" r="2.2" fill="#fffaf2" stroke="#201912" stroke-width="0.8"/>
<circle cx="320.00" cy="628.00" r="2.2" fill="#fffaf2" stroke="#201912" stroke-width="0.8"/>
<text x="315.14" y="525.66" fill="#342a1f" font-size="10" font-family="monospace">front_right_abs [31]</text>
<path d="M271.00,691.00 L40.00,642.00" fill="none" stroke="#c7641e" stroke-width="4.5" stroke-linecap="round" stroke-linejoin="round"/>
<circle cx="271.00" cy="691.00" r="2.2" fill="#fffaf2" stroke="#201912" stroke-width="0.8"/>
<circle cx="264.92" cy="689.71" r="2.2" fill="#fffaf2" stroke="#201912" stroke-width="0.8"/>
<circle cx="258.84" cy="688.42" r="2.2" fill="#fffaf2" stroke="#201912" stroke-width="0.8"/>
<circle cx="252.76" cy="687.13" r="2.2" fill="#fffaf2" stroke="#201912" stroke-width="0.8"/>
<circle cx="246.68" cy="685.84" r="2.2" fill="#fffaf2" stroke="#201912" stroke-width="0.8"/>
<circle cx="240.61" cy="684.55" r="2.2" fill="#fffaf2" stroke="#201912" stroke-width="0.8"/>
<circle cx="234.53" cy="683.26" r="2.2" fill="#fffaf2" stroke="#201912" stroke-width="0.8"/>
<circle cx="228.45" cy="681.97" r="2.2" fill="#fffaf2" stroke="#201912" stroke-width="0.8"/>
<circle cx="222.37" cy="680.68" r="2.2" fill="#fffaf2" stroke="#201912" stroke-width="0.8"/>
<circle cx="216.29" cy="679.39" r="2.2" fill="#fffaf2" stroke="#201912" stroke-width="0.8"/>
<circle cx="210.21" cy="678.11" r="2.2" fill="#fffaf2" stroke="#201912" stroke-width="0.8"/>
<circle cx="204.13" cy="676.82" r="2.2" fill="#fffaf2" stroke="#201912" stroke-width="0.8"/>
<circle cx="198.05" cy="675.53" r="2.2" fill="#fffaf2" stroke="#201912" stroke-width="0.8"/>
<circle cx="191.97" cy="674.24" r="2.2" fill="#fffaf2" stroke="#201912" stroke-width="0.8"/>
<circle cx="185.89" cy="672.95" r="2.2" fill="#fffaf2" stroke="#201912" stroke-width="0.8"/>
<circle cx="179.82" cy="671.66" r="2.2" fill="#fffaf2" stroke="#201912" stroke-width="0.8"/>
<circle cx="173.74" cy="670.37" r="2.2" fill="#fffaf2" stroke="#201912" stroke-width="0.8"/>
<circle cx="167.66" cy="669.08" r="2.2" fill="#fffaf2" stroke="#201912" stroke-width="0.8"/>
<circle cx="161.58" cy="667.79" r="2.2" fill="#fffaf2" stroke="#201912" stroke-width="0.8"/>
<circle cx="155.50" cy="666.50" r="2.2" fill="#fffaf2" stroke="#201912" stroke-width="0.8"/>
<circle cx="149.42" cy="665.21" r="2.2" fill="#fffaf2" stroke="#201912" stroke-width="0.8"/>
<circle cx="143.34" cy="663.92" r="2.2" fill="#fffaf2" stroke="#201912" stroke-width="0.8"/>
<circle cx="137.26" cy="662.63" r="2.2" fill="#fffaf2" stroke="#201912" stroke-width="0.8"/>
<circle cx="131.18" cy="661.34" r="2.2" fill="#fffaf2" stroke="#201912" stroke-width="0.8"/>
<circle cx="125.11" cy="660.05" r="2.2" fill="#fffaf2" stroke="#201912" stroke-width="0.8"/>
<circle cx="119.03" cy="658.76" r="2.2" fill="#fffaf2" stroke="#201912" stroke-width="0.8"/>
<circle cx="112.95" cy="657.47" r="2.2" fill="#fffaf2" stroke="#201912" stroke-width="0.8"/>
<circle cx="106.87" cy="656.18" r="2.2" fill="#fffaf2" stroke="#201912" stroke-width="0.8"/>
<circle cx="100.79" cy="654.89" r="2.2" fill="#fffaf2" stroke="#201912" stroke-width="0.8"/>
<circle cx="94.71" cy="653.61" r="2.2" fill="#fffaf2" stroke="#201912" stroke-width="0.8"/>
<circle cx="88.63" cy="652.32" r="2.2" fill="#fffaf2" stroke="#201912" stroke-width="0.8"/>
<circle cx="82.55" cy="651.03" r="2.2" fill="#fffaf2" stroke="#201912" stroke-width="0.8"/>
<circle cx="76.47" cy="649.74" r="2.2" fill="#fffaf2" stroke="#201912" stroke-width="0.8"/>
<circle cx="70.39" cy="648.45" r="2.2" fill="#fffaf2" stroke="#201912" stroke-width="0.8"/>
<circle cx="64.32" cy="647.16" r="2.2" fill="#fffaf2" stroke="#201912" stroke-width="0.8"/>
<circle cx="58.24" cy="645.87" r="2.2" fill="#fffaf2" stroke="#201912" stroke-width="0.8"/>
<circle cx="52.16" cy="644.58" r="2.2" fill="#fffaf2" stroke="#201912" stroke-width="0.8"/>
<circle cx="46.08" cy="643.29" r="2.2" fill="#fffaf2" stroke="#201912" stroke-width="0.8"/>
<circle cx="40.00" cy="642.00" r="2.2" fill="#fffaf2" stroke="#201912" stroke-width="0.8"/>
<text x="163.50" y="658.50" fill="#342a1f" font-size="10" font-family="monospace">front_right_belt [39]</text>
<path d="M166.00,138.00 L145.00,201.00 L110.00,306.00 L131.00,278.00 L152.00,229.00" fill="none" stroke="#c7641e" stroke-width="4.5" stroke-linecap="round" stroke-linejoin="round"/>
<circle cx="166.00" cy="138.00" r="2.2" fill="#fffaf2" stroke="#201912" stroke-width="0.8"/>
<circle cx="164.02" cy="143.93" r="2.2" fill="#fffaf2" stroke="#201912" stroke-width="0.8"/>
<circle cx="162.04" cy="149.87" r="2.2" fill="#fffaf2" stroke="#201912" stroke-width="0.8"/>
<circle cx="160.07" cy="155.80" r="2.2" fill="#fffaf2" stroke="#201912" stroke-width="0.8"/>
<circle cx="158.09" cy="161.73" r="2.2" fill="#fffaf2" stroke="#201912" stroke-width="0.8"/>
<circle cx="156.11" cy="167.66" r="2.2" fill="#fffaf2" stroke="#201912" stroke-width="0.8"/>
<circle cx="154.13" cy="173.60" r="2.2" fill="#fffaf2" stroke="#201912" stroke-width="0.8"/>
<circle cx="152.16" cy="179.53" r="2.2" fill="#fffaf2" stroke="#201912" stroke-width="0.8"/>
<circle cx="150.18" cy="185.46" r="2.2" fill="#fffaf2" stroke="#201912" stroke-width="0.8"/>
<circle cx="148.20" cy="191.39" r="2.2" fill="#fffaf2" stroke="#201912" stroke-width="0.8"/>
<circle cx="146.22" cy="197.33" r="2.2" fill="#fffaf2" stroke="#201912" stroke-width="0.8"/>
<circle cx="144.27" cy="203.19" r="2.2" fill="#fffaf2" stroke="#201912" stroke-width="0.8"/>
<circle cx="142.35" cy="208.94" r="2.2" fill="#fffaf2" stroke="#201912" stroke-width="0.8"/>
<circle cx="140.44" cy="214.69" r="2.2" fill="#fffaf2" stroke="#201912" stroke-width="0.8"/>
<circle cx="138.52" cy="220.45" r="2.2" fill="#fffaf2" stroke="#201912" stroke-width="0.8"/>
<circle cx="136.60" cy="226.20" r="2.2" fill="#fffaf2" stroke="#201912" stroke-width="0.8"/>
<circle cx="134.68" cy="231.95" r="2.2" fill="#fffaf2" stroke="#201912" stroke-width="0.8"/>
<circle cx="132.77" cy="237.70" r="2.2" fill="#fffaf2" stroke="#201912" stroke-width="0.8"/>
<circle cx="130.85" cy="243.45" r="2.2" fill="#fffaf2" stroke="#201912" stroke-width="0.8"/>
<circle cx="128.93" cy="249.20" r="2.2" fill="#fffaf2" stroke="#201912" stroke-width="0.8"/>
<circle cx="127.02" cy="254.95" r="2.2" fill="#fffaf2" stroke="#201912" stroke-width="0.8"/>
<circle cx="125.10" cy="260.71" r="2.2" fill="#fffaf2" stroke="#201912" stroke-width="0.8"/>
<circle cx="123.18" cy="266.46" r="2.2" fill="#fffaf2" stroke="#201912" stroke-width="0.8"/>
<circle cx="121.26" cy="272.21" r="2.2" fill="#fffaf2" stroke="#201912" stroke-width="0.8"/>
<circle cx="119.35" cy="277.96" r="2.2" fill="#fffaf2" stroke="#201912" stroke-width="0.8"/>
<circle cx="117.43" cy="283.71" r="2.2" fill="#fffaf2" stroke="#201912" stroke-width="0.8"/>
<circle cx="115.51" cy="289.46" r="2.2" fill="#fffaf2" stroke="#201912" stroke-width="0.8"/>
<circle cx="113.60" cy="295.21" r="2.2" fill="#fffaf2" stroke="#201912" stroke-width="0.8"/>
<circle cx="111.68" cy="300.97" r="2.2" fill="#fffaf2" stroke="#201912" stroke-width="0.8"/>
<circle cx="110.40" cy="305.46" r="2.2" fill="#fffaf2" stroke="#201912" stroke-width="0.8"/>
<circle cx="113.62" cy="301.17" r="2.2" fill="#fffaf2" stroke="#201912" stroke-width="0.8"/>
<circle cx="116.84" cy="296.88" r="2.2" fill="#fffaf2" stroke="#201912" stroke-width="0.8"/>
<circle cx="120.05" cy="292.59" r="2.2" fill="#fffaf2" stroke="#201912" stroke-width="0.8"/>
<circle cx="123.27" cy="288.30" r="2.2" fill="#fffaf2" stroke="#201912" stroke-width="0.8"/>
<circle cx="126.49" cy="284.01" r="2.2" fill="#fffaf2" stroke="#201912" stroke-width="0.8"/>
<circle cx="129.71" cy="279.72" r="2.2" fill="#fffaf2" stroke="#201912" stroke-width="0.8"/>
<circle cx="132.46" cy="274.59" r="2.2" fill="#fffaf2" stroke="#201912" stroke-width="0.8"/>
<circle cx="134.90" cy="268.89" r="2.2" fill="#fffaf2" stroke="#201912" stroke-width="0.8"/>
<circle cx="137.35" cy="263.19" r="2.2" fill="#fffaf2" stroke="#201912" stroke-width="0.8"/>
<circle cx="139.79" cy="257.50" r="2.2" fill="#fffaf2" stroke="#201912" stroke-width="0.8"/>
<circle cx="142.23" cy="251.80" r="2.2" fill="#fffaf2" stroke="#201912" stroke-width="0.8"/>
<circle cx="144.67" cy="246.10" r="2.2" fill="#fffaf2" stroke="#201912" stroke-width="0.8"/>
<circle cx="147.12" cy="240.40" r="2.2" fill="#fffaf2" stroke="#201912" stroke-width="0.8"/>
<circle cx="149.56" cy="234.70" r="2.2" fill="#fffaf2" stroke="#201912" stroke-width="0.8"/>
<circle cx="152.00" cy="229.00" r="2.2" fill="#fffaf2" stroke="#201912" stroke-width="0.8"/>
<text x="131.18" y="258.46" fill="#342a1f" font-size="10" font-family="monospace">right_upper_arm [45]</text>
<path d="M110.00,306.00 L68.00,439.00" fill="none" stroke="#c7641e" stroke-width="4.5" stroke-linecap="round" stroke-linejoin="round"/>
<circle cx="110.00" cy="306.00" r="2.2" fill="#fffaf2" stroke="#201912" stroke-width="0.8"/>
<circle cx="108.09" cy="312.05" r="2.2" fill="#fffaf2" stroke="#201912" stroke-width="0.8"/>
<circle cx="106.18" cy="318.09" r="2.2" fill="#fffaf2" stroke="#201912" stroke-width="0.8"/>
<circle cx="104.27" cy="324.14" r="2.2" fill="#fffaf2" stroke="#201912" stroke-width="0.8"/>
<circle cx="102.36" cy="330.18" r="2.2" fill="#fffaf2" stroke="#201912" stroke-width="0.8"/>
<circle cx="100.45" cy="336.23" r="2.2" fill="#fffaf2" stroke="#201912" stroke-width="0.8"/>
<circle cx="98.55" cy="342.27" r="2.2" fill="#fffaf2" stroke="#201912" stroke-width="0.8"/>
<circle cx="96.64" cy="348.32" r="2.2" fill="#fffaf2" stroke="#201912" stroke-width="0.8"/>
<circle cx="94.73" cy="354.36" r="2.2" fill="#fffaf2" stroke="#201912" stroke-width="0.8"/>
<circle cx="92.82" cy="360.41" r="2.2" fill="#fffaf2" stroke="#201912" stroke-width="0.8"/>
<circle cx="90.91" cy="366.45" r="2.2" fill="#fffaf2" stroke="#201912" stroke-width="0.8"/>
<circle cx="89.00" cy="372.50" r="2.2" fill="#fffaf2" stroke="#201912" stroke-width="0.8"/>
<circle cx="87.09" cy="378.55" r="2.2" fill="#fffaf2" stroke="#201912" stroke-width="0.8"/>
<circle cx="85.18" cy="384.59" r="2.2" fill="#fffaf2" stroke="#201912" stroke-width="0.8"/>
<circle cx="83.27" cy="390.64" r="2.2" fill="#fffaf2" stroke="#201912" stroke-width="0.8"/>
<circle cx="81.36" cy="396.68" r="2.2" fill="#fffaf2" stroke="#201912" stroke-width="0.8"/>
<circle cx="79.45" cy="402.73" r="2.2" fill="#fffaf2" stroke="#201912" stroke-width="0.8"/>
<circle cx="77.55" cy="408.77" r="2.2" fill="#fffaf2" stroke="#201912" stroke-width="0.8"/>
<circle cx="75.64" cy="414.82" r="2.2" fill="#fffaf2" stroke="#201912" stroke-width="0.8"/>
<circle cx="73.73" cy="420.86" r="2.2" fill="#fffaf2" stroke="#201912" stroke-width="0.8"/>
<circle cx="71.82" cy="426.91" r="2.2" fill="#fffaf2" stroke="#201912" stroke-width="0.8"/>
<circle cx="69.91" cy="432.95" r="2.2" fill="#fffaf2" stroke="#201912" stroke-width="0.8"/>
<circle cx="68.00" cy="439.00" r="2.2" fill="#fffaf2" stroke="#201912" stroke-width="0.8"/>
<text x="97.00" y="364.50" fill="#342a1f" font-size="10" font-family="monospace">right_forearm [23]</text>
</svg>
