<?xml version="1.0" encoding="UTF-8"?>
<svg xmlns="http://www.w3.org/2000/svg" width="892" height="1036" viewBox="0 0 892 1036">
<rect width="100%" height="100%" fill="#f6f1e8" />
<style>
text { font-family: monospace; fill: #1d1d1d; }
.title { font-size: 20px; font-weight: bold; }
.small { font-size: 12px; }
.label { font-size: 11px; }
</style>
<polyline points="284.2,176.2 608.2,176.2 716.2,446.2 752.2,761.2 446.2,860.2 140.2,761.2 176.2,446.2 284.2,176.2" fill="#eadfcb" stroke="#cfb28b" stroke-width="2" />
<line x1="446.2" y1="84.0" x2="446.2" y2="952.5" stroke="#888" stroke-width="1.4" stroke-dasharray="7 5" />
<polyline points="342.8,239.2 351.8,302.2 387.8,324.8" fill="none" stroke="#1f7a8c" stroke-width="4.5" stroke-linecap="round" stroke-linejoin="round" />
<circle cx="342.8" cy="239.2" r="4.0" fill="#1f7a8c" stroke="none" />
<circle cx="351.8" cy="302.2" r="4.0" fill="#1f7a8c" stroke="none" />
<circle cx="387.8" cy="324.8" r="4.0" fill="#1f7a8c" stroke="none" />
<polyline points="392.2,437.2 329.2,491.2 230.2,513.8" fill="none" stroke="#2a9d8f" stroke-width="4.5" stroke-linecap="round" stroke-linejoin="round" />
<circle cx="392.2" cy="437.2" r="4.0" fill="#2a9d8f" stroke="none" />
<circle cx="329.2" cy="491.2" r="4.0" fill="#2a9d8f" stroke="none" />
<circle cx="230.2" cy="513.8" r="4.0" fill="#2a9d8f" stroke="none" />
<polyline points="369.8,504.8 387.8,518.2 401.2,617.2" fill="none" stroke="#457b9d" stroke-width="4.5" stroke-linecap="round" stroke-linejoin="round" />
<circle cx="369.8" cy="504.8" r="4.0" fill="#457b9d" stroke="none" />
<circle cx="387.8" cy="518.2" r="4.0" fill="#457b9d" stroke="none" />
<circle cx="401.2" cy="617.2" r="4.0" fill="#457b9d" stroke="none" />
<polyline points="369.8,657.8 221.2,626.2" fill="none" stroke="#6d597a" stroke-width="4.5" stroke-linecap="round" stroke-linejoin="round" />
<circle cx="369.8" cy="657.8" r="4.0" fill="#6d597a" stroke="none" />
<circle cx="221.2" cy="626.2" r="4.0" fill="#6d597a" stroke="none" />
<polyline points="549.8,239.2 540.8,302.2 504.8,324.8" fill="none" stroke="#1f7a8c" stroke-width="4.5" stroke-linecap="round" stroke-linejoin="round" />
<circle cx="549.8" cy="239.2" r="4.0" fill="#1f7a8c" stroke="none" />
<circle cx="540.8" cy="302.2" r="4.0" fill="#1f7a8c" stroke="none" />
<circle cx="504.8" cy="324.8" r="4.0" fill="#1f7a8c" stroke="none" />
<polyline points="500.2,437.2 563.2,491.2 662.2,513.8" fill="none" stroke="#2a9d8f" stroke-width="4.5" stroke-linecap="round" stroke-linejoin="round" />
<circle cx="500.2" cy="437.2" r="4.0" fill="#2a9d8f" stroke="none" />
<circle cx="563.2" cy="491.2" r="4.0" fill="#2a9d8f" stroke="none" />
<circle cx="662.2" cy="513.8" r="4.0" fill="#2a9d8f" stroke="none" />
<polyline points="522.8,504.8 504.8,518.2 491.2,617.2" fill="none" stroke="#457b9d" stroke-width="4.5" stroke-linecap="round" stroke-linejoin="round" />
<circle cx="522.8" cy="504.8" r="4.0" fill="#457b9d" stroke="none" />
<circle cx="504.8" cy="518.2" r="4.0" fill="#457b9d" stroke="none" />
<circle cx="491.2" cy="617.2" r="4.0" fill="#457b9d" stroke="none" />
<polyline points="522.8,657.8 671.2,626.2" fill="none" stroke="#6d597a" stroke-width="4.5" stroke-linecap="round" stroke-linejoin="round" />
<circle cx="522.8" cy="657.8" r="4.0" fill="#6d597a" stroke="none" />
<circle cx="671.2" cy="626.2" r="4.0" fill="#6d597a" stroke="none" />
<line x1="387.8" y1="324.8" x2="392.2" y2="437.2" stroke="#555" stroke-width="1.6" stroke-dasharray="3 4" />
<line x1="230.2" y1="513.8" x2="369.8" y2="504.8" stroke="#555" stroke-width="1.6" stroke-dasharray="3 4" />
<line x1="401.2" y1="617.2" x2="369.8" y2="657.8" stroke="#555" stroke-width="1.6" stroke-dasharray="3 4" />
<line x1="504.8" y1="324.8" x2="500.2" y2="437.2" stroke="#555" stroke-width="1.6" stroke-dasharray="3 4" />
<line x1="662.2" y1="513.8" x2="522.8" y2="504.8" stroke="#555" stroke-width="1.6" stroke-dasharray="3 4" />
<line x1="491.2" y1="617.2" x2="522.8" y2="657.8" stroke="#555" stroke-width="1.6" stroke-dasharray="3 4" />
<circle cx="446.2" cy="356.2" r="38.2" fill="none" stroke="#c44536" stroke-width="4" />
<circle cx="446.2" cy="356.2" r="4.0" fill="#c44536" stroke="none" />
<text x="48.0" y="36.0" class="title">Front torso layout from supplied coordinates</text>
<text x="48.0" y="58.0" class="small">Ring centered at (0,0), diameter 8.5. Left side mirrored from right. Dashed lines indicate discontinuities/jumps.</text>
<text x="459.8" y="302.2" class="small">ring center (0,0)</text>
<text x="459.8" y="934.5" class="small">mirror plane</text>
<text x="538.0" y="271.2" fill="#222" class="label">R upper strip</text>
<text x="592.1" y="464.7" fill="#222" class="label">R lower outer</text>
<text x="517.8" y="550.2" fill="#222" class="label">R lower inner</text>
<text x="607.8" y="631.2" fill="#222" class="label">R belt</text>
<text x="257.2" y="271.2" fill="#222" class="label">L upper strip</text>
<text x="203.2" y="464.7" fill="#222" class="label">L lower outer</text>
<text x="277.5" y="550.2" fill="#222" class="label">L lower inner</text>
<text x="187.5" y="631.2" fill="#222" class="label">L belt</text>
<line x1="763.5" y1="102.0" x2="793.5" y2="102.0" stroke="#111" stroke-width="1.6" />
<line x1="763.5" y1="102.0" x2="763.5" y2="132.0" stroke="#111" stroke-width="1.6" />
<text x="797.5" y="106.0" class="small">+x</text>
<text x="753.5" y="146.0" class="small">+y down</text>
</svg>